<?xml version="1.0" encoding="UTF-8"?>
<svg width="64px" height="64px" viewBox="0 0 64 64" version="1.1" xmlns="http://www.w3.org/2000/svg" xmlns:xlink="http://www.w3.org/1999/xlink">
    <!-- Generator: Sketch 45.2 (43514) - http://www.bohemiancoding.com/sketch -->
    <title>default_avatar_64</title>
    <desc>Created with Sketch.</desc>
    <defs></defs>
    <g id="Page-1" stroke="none" stroke-width="1" fill="none" fill-rule="evenodd">
        <g id="default_avatar_64">
            <g id="Group-59">
                <rect id="Rectangle-28-Copy" fill="#EAEAEA" x="0" y="0" width="64" height="64"></rect>
                <path d="M54.75,64 C54.75,53.8432321 48.0941207,45.2410282 38.9061209,42.3171469 C43.985965,39.9143286 47.5,34.7425377 47.5,28.75 C47.5,20.4657288 40.7842712,13.75 32.5,13.75 C24.2157288,13.75 17.5,20.4657288 17.5,28.75 C17.5,34.5913465 20.8389542,39.6528385 25.7124085,42.1300217 C16.2061001,44.858069 9.25,53.6166924 9.25,64 L0,64 L0,0 L64,0 L64,64 L54.75,64 Z M27.8471722,34.6116708 C27.7164625,34.1130528 28.0147112,33.6028819 28.5133292,33.4721722 C29.0119472,33.3414625 29.5221181,33.6397112 29.6528278,34.1383292 C29.6648689,34.1842625 29.7047435,34.3001458 29.7778867,34.461483 C29.9053055,34.7425397 30.0765756,35.0250117 30.2950524,35.2864161 C30.9125415,36.0252331 31.777836,36.4615774 33.0063157,36.4615774 C34.2347953,36.4615774 35.1000898,36.0252331 35.7175789,35.2864161 C35.9360557,35.0250117 36.1073258,34.7425397 36.2347446,34.461483 C36.3078878,34.3001458 36.3477624,34.1842625 36.3598035,34.1383292 C36.4905132,33.6397112 37.0006841,33.3414625 37.4993021,33.4721722 C37.9979201,33.6028819 38.2961688,34.1130528 38.1654591,34.6116708 C38.0345613,35.1110064 37.7234865,35.7971662 37.1498664,36.4834946 C36.1898659,37.6321218 34.8094174,38.3282441 33.0063157,38.3282441 C31.2032139,38.3282441 29.8227654,37.6321218 28.8627649,36.4834946 C28.2891448,35.7971662 27.97807,35.1110064 27.8471722,34.6116708 Z" id="Combined-Shape-Copy-3" fill="#C9C9C9"></path>
            </g>
        </g>
    </g>
</svg>