<svg width="17" height="16" viewBox="0 0 17 16" fill="none" xmlns="http://www.w3.org/2000/svg">
  <path fill-rule="evenodd" clip-rule="evenodd"
    d="M7.46995 15C7.77074 14.9918 8.0121 14.7408 8.0121 14.4327V10.5938C8.0121 10.3655 7.87759 10.1594 7.67079 10.0709C7.59673 10.0392 7.48341 9.96889 7.31176 9.81127C7.28663 9.7882 7.26092 9.76306 7.23508 9.73574C7.16398 9.66053 7.09195 9.56877 7.02852 9.45801C6.91249 9.25538 6.82526 8.98918 6.82526 8.64449C6.82526 8.04826 7.09255 7.72698 7.30479 7.55485C7.34811 7.51965 7.39231 7.48832 7.43505 7.46116V8.40923V8.45015C7.43505 8.66608 7.5555 8.86329 7.74576 8.95886L7.78701 8.97958L8.43716 9.30616C8.59267 9.38428 8.77505 9.38428 8.93056 9.30616L9.62196 8.95886C9.81222 8.86329 9.93267 8.66608 9.93267 8.45015V7.47087C9.95659 7.48647 9.98076 7.50326 10.0049 7.52131C10.0191 7.53192 10.0333 7.54297 10.0475 7.55447C10.0706 7.57322 10.0944 7.59376 10.1184 7.61625C10.3143 7.79971 10.5264 8.11287 10.5264 8.64449C10.5264 8.84119 10.495 9.01292 10.4444 9.16244C10.3705 9.38104 10.2555 9.5522 10.1375 9.68455C10.0956 9.73152 10.0533 9.7736 10.0124 9.81118C9.86657 9.9451 9.72128 10.0276 9.62011 10.0709C9.41331 10.1594 9.2788 10.3655 9.2788 10.5938V14.4327C9.2788 14.7419 9.5219 14.9934 9.82421 14.9999L12.6617 15C13.8245 15 14.8592 13.9901 14.8592 12.7658V9.20224L14.9128 9.14774C14.9347 9.1255 14.9562 9.10285 14.9772 9.07979C15.8899 8.07888 15.831 6.51551 14.846 5.5884C14.8413 5.58406 14.8367 5.5798 14.8319 5.57562L10.4507 1.72329C9.41864 0.758904 7.83135 0.758904 6.79924 1.72329L2.41807 5.57562C2.41332 5.5798 2.40864 5.58406 2.40403 5.5884C2.38133 5.60976 2.35903 5.63157 2.33715 5.6538C1.38762 6.61851 1.38762 8.18302 2.33715 9.14774L2.3908 9.20224V12.7658C2.3908 14.0329 3.33509 14.9865 4.58574 14.9877L6.02444 15L7.46995 15ZM9.70116 2.56313C9.09407 1.99174 8.15592 1.99174 7.54883 2.56313C7.54422 2.56747 7.53954 2.57173 7.53479 2.57591L3.15465 6.42734C3.14453 6.43699 3.13456 6.4468 3.12475 6.45677C2.61149 6.97824 2.61149 7.8233 3.12475 8.34476L3.342 8.56549C3.44674 8.6719 3.5056 8.81635 3.5056 8.96697V12.7658C3.5056 13.4 3.94505 13.8532 4.58826 13.8532H4.59292L6.03147 13.8654H6.8973V10.9239C6.78567 10.846 6.67557 10.7552 6.56503 10.6537C6.16927 10.2904 5.71046 9.64049 5.71046 8.64449C5.71046 7.62835 6.19542 7.00379 6.61005 6.66753C7.01447 6.33904 7.42519 6.22092 7.53208 6.19584C7.73975 6.14665 8.00686 6.17827 8.21478 6.33591C8.22064 6.34033 8.22679 6.3451 8.23319 6.35021C8.35023 6.44375 8.54986 6.65301 8.54986 6.97301V7.93446V8.09751L8.68386 8.16483L8.81786 8.09751V7.56728V6.97301C8.81786 6.65527 9.01122 6.43886 9.14794 6.33574C9.34687 6.1851 9.5992 6.1438 9.81886 6.19589C9.84175 6.20125 9.8783 6.21079 9.92554 6.22562C10.1011 6.28073 10.4244 6.40896 10.7428 6.66761C11.1577 7.00425 11.6412 7.62891 11.6412 8.64449C11.6412 9.65562 11.1404 10.3036 10.7589 10.6538C10.6367 10.7661 10.5127 10.8591 10.3936 10.9351V13.8654H12.6617C13.2224 13.8654 13.7444 13.3497 13.7444 12.7658V8.96697C13.7444 8.81635 13.8032 8.6719 13.908 8.56549L14.1252 8.34476C14.1371 8.33274 14.1487 8.32049 14.1601 8.30801C14.6513 7.76922 14.6219 6.92931 14.0954 6.42735L9.7152 2.57591C9.71045 2.57173 9.70577 2.56747 9.70116 2.56313Z"
    fill="black" fill-opacity="0.3" stroke="black" stroke-opacity="0.3" stroke-width="0.1" stroke-linecap="round"
    stroke-linejoin="round" />
</svg>