<svg width="18" height="18" viewBox="0 0 18 18" fill="none" xmlns="http://www.w3.org/2000/svg">
  <path fill-rule="evenodd" clip-rule="evenodd"
    d="M8.99999 0.666664C4.39999 0.666664 0.666656 4.4 0.666656 9C0.666656 13.6 4.39999 17.3333 8.99999 17.3333C13.6 17.3333 17.3333 13.6 17.3333 9C17.3333 4.4 13.6 0.666664 8.99999 0.666664ZM8.16666 5.66666C8.16666 5.20643 8.53975 4.83333 8.99999 4.83333C9.46023 4.83333 9.83332 5.20643 9.83332 5.66666C9.83332 6.1269 9.46023 6.5 8.99999 6.5C8.53975 6.5 8.16666 6.1269 8.16666 5.66666ZM8.16666 9C8.16666 8.53976 8.53975 8.16666 8.99999 8.16666C9.46023 8.16666 9.83332 8.53976 9.83332 9V12.3333C9.83332 12.7936 9.46023 13.1667 8.99999 13.1667C8.53975 13.1667 8.16666 12.7936 8.16666 12.3333V9Z"
    fill="#5D8AA3" />
</svg>