<svg width="13" height="12" viewBox="0 0 13 12" fill="none" xmlns="http://www.w3.org/2000/svg">
  <path fill-rule="evenodd" clip-rule="evenodd"
    d="M0.842942 10.2424C0.452418 10.6329 0.452418 11.2661 0.842942 11.6566C1.23347 12.0471 1.86663 12.0471 2.25716 11.6566L6.49979 7.41396L10.7424 11.6566C11.133 12.0471 11.7661 12.0471 12.1567 11.6566C12.5472 11.2661 12.5472 10.6329 12.1567 10.2424L7.914 5.99974L12.1567 1.75709C12.5472 1.36657 12.5472 0.733405 12.1567 0.342881C11.7661 -0.0476433 11.133 -0.0476433 10.7424 0.342881L6.49979 4.58553L2.25716 0.342901C1.86663 -0.0476231 1.23347 -0.0476231 0.842942 0.342901C0.452418 0.733425 0.452418 1.36659 0.842942 1.75711L5.08557 5.99974L0.842942 10.2424Z"
    fill="black" fill-opacity="0.85" />
</svg>