<svg width="14" height="14" viewBox="0 0 14 14" fill="none" xmlns="http://www.w3.org/2000/svg">
<path d="M6.9967 13.6663C10.6506 13.6663 13.6666 10.6504 13.6666 7.0029C13.6666 3.34896 10.6442 0.333008 6.99025 0.333008C3.34276 0.333008 0.333252 3.34896 0.333252 7.0029C0.333252 10.6504 3.3492 13.6663 6.9967 13.6663ZM6.9967 12.3324C4.03875 12.3324 1.67367 9.9544 1.67367 7.0029C1.67367 4.04495 4.03875 1.66699 6.99025 1.66699C9.9482 1.66699 12.3262 4.04495 12.3326 7.0029C12.3391 9.9544 9.95465 12.3324 6.9967 12.3324ZM6.85492 8.27243C7.20936 8.27243 7.43491 8.07266 7.45424 7.80844C7.45424 7.78266 7.46069 7.75044 7.46069 7.73111C7.48002 7.396 7.71202 7.17689 8.12446 6.90623C8.76245 6.48735 9.16844 6.11358 9.16844 5.37248C9.16844 4.30272 8.20179 3.68406 7.0547 3.68406C5.95271 3.68406 5.20517 4.18672 4.99895 4.79249C4.96029 4.90204 4.94095 5.01804 4.94095 5.13404C4.94095 5.44337 5.17939 5.6367 5.48228 5.6367C5.85605 5.6367 5.94627 5.44337 6.1396 5.22426C6.34582 4.90204 6.62293 4.71516 6.9967 4.71516C7.51224 4.71516 7.8409 5.00515 7.8409 5.43692C7.8409 5.83003 7.57024 6.04269 7.02247 6.42291C6.56493 6.73868 6.23626 7.06734 6.23626 7.64733V7.71822C6.23626 8.08555 6.45537 8.27243 6.85492 8.27243ZM6.84203 10.2573C7.26091 10.2573 7.60246 9.9544 7.60246 9.54197C7.60246 9.13597 7.26736 8.83309 6.84203 8.83309C6.42315 8.83309 6.0816 9.13597 6.0816 9.54197C6.0816 9.94796 6.42959 10.2573 6.84203 10.2573Z" fill="white"/>
</svg>
