<svg width="43" height="43" viewBox="0 0 43 43" fill="none" xmlns="http://www.w3.org/2000/svg">
<path opacity="0.5" fill-rule="evenodd" clip-rule="evenodd" d="M22 3.5C18.9624 3.5 16.5 5.96243 16.5 9C16.5 12.0376 18.9624 14.5 22 14.5C25.0376 14.5 27.5 12.0376 27.5 9C27.5 5.96243 25.0376 3.5 22 3.5ZM13.5 9C13.5 4.30558 17.3056 0.5 22 0.5C26.6944 0.5 30.5 4.30558 30.5 9C30.5 13.6944 26.6944 17.5 22 17.5C17.3056 17.5 13.5 13.6944 13.5 9ZM20 24.5C10.7164 24.5 3.5 31.153 3.5 39C3.5 39.8284 2.82843 40.5 2 40.5C1.17157 40.5 0.5 39.8284 0.5 39C0.5 29.1738 9.40145 21.5 20 21.5C20.8284 21.5 21.5 22.1716 21.5 23C21.5 23.8284 20.8284 24.5 20 24.5ZM32 24.5C27.8579 24.5 24.5 27.8579 24.5 32C24.5 36.1421 27.8579 39.5 32 39.5C36.1421 39.5 39.5 36.1421 39.5 32C39.5 27.8579 36.1421 24.5 32 24.5ZM21.5 32C21.5 26.201 26.201 21.5 32 21.5C37.799 21.5 42.5 26.201 42.5 32C42.5 37.799 37.799 42.5 32 42.5C26.201 42.5 21.5 37.799 21.5 32ZM31 27.5C31.8284 27.5 32.5 28.1716 32.5 29V31.5H35C35.8284 31.5 36.5 32.1716 36.5 33C36.5 33.8284 35.8284 34.5 35 34.5H31C30.1716 34.5 29.5 33.8284 29.5 33V29C29.5 28.1716 30.1716 27.5 31 27.5Z" fill="url(#paint0_linear_593_17252)"/>
<defs>
<linearGradient id="paint0_linear_593_17252" x1="21.5" y1="2" x2="21.5" y2="45" gradientUnits="userSpaceOnUse">
<stop stop-color="white"/>
<stop offset="1" stop-color="white" stop-opacity="0"/>
</linearGradient>
</defs>
</svg>
