<svg width="41" height="41" viewBox="0 0 41 41" fill="none" xmlns="http://www.w3.org/2000/svg">
<path opacity="0.5" fill-rule="evenodd" clip-rule="evenodd" d="M22 3.5C18.9624 3.5 16.5 5.96243 16.5 9C16.5 12.0376 18.9624 14.5 22 14.5C25.0376 14.5 27.5 12.0376 27.5 9C27.5 5.96243 25.0376 3.5 22 3.5ZM13.5 9C13.5 4.30558 17.3056 0.5 22 0.5C26.6944 0.5 30.5 4.30558 30.5 9C30.5 13.6944 26.6944 17.5 22 17.5C17.3056 17.5 13.5 13.6944 13.5 9ZM20 24.5C10.7164 24.5 3.5 31.153 3.5 39C3.5 39.8284 2.82843 40.5 2 40.5C1.17157 40.5 0.5 39.8284 0.5 39C0.5 29.1738 9.40145 21.5 20 21.5C20.8284 21.5 21.5 22.1716 21.5 23C21.5 23.8284 20.8284 24.5 20 24.5ZM33.9393 21.9393C34.5251 21.3536 35.4749 21.3536 36.0607 21.9393L40.0607 25.9393C40.6464 26.5251 40.6464 27.4749 40.0607 28.0607L30.0607 38.0607C29.7794 38.342 29.3978 38.5 29 38.5H25C24.1716 38.5 23.5 37.8284 23.5 37V33C23.5 32.6022 23.658 32.2206 23.9393 31.9393L33.9393 21.9393ZM26.5 33.6213V35.5H28.3787L36.8787 27L35 25.1213L26.5 33.6213Z" fill="url(#paint0_linear_593_17255)"/>
<defs>
<linearGradient id="paint0_linear_593_17255" x1="20.5" y1="2" x2="20.5" y2="43.8974" gradientUnits="userSpaceOnUse">
<stop stop-color="white"/>
<stop offset="1" stop-color="white" stop-opacity="0"/>
</linearGradient>
</defs>
</svg>
