<svg width="14" height="15" viewBox="0 0 14 15" fill="none" xmlns="http://www.w3.org/2000/svg">
  <path
    d="M6.99694 14.1663C10.6509 14.1663 13.6668 11.1504 13.6668 7.5029C13.6668 3.84896 10.6444 0.833008 6.9905 0.833008C3.343 0.833008 0.333496 3.84896 0.333496 7.5029C0.333496 11.1504 3.34945 14.1663 6.99694 14.1663ZM6.99694 12.8324C4.03899 12.8324 1.67392 10.4544 1.67392 7.5029C1.67392 4.54495 4.03899 2.16699 6.9905 2.16699C9.94845 2.16699 12.3264 4.54495 12.3329 7.5029C12.3393 10.4544 9.95489 12.8324 6.99694 12.8324ZM6.85517 8.77243C7.2096 8.77243 7.43516 8.57266 7.45449 8.30844C7.45449 8.28266 7.46093 8.25044 7.46093 8.23111C7.48027 7.896 7.71226 7.67689 8.1247 7.40623C8.76269 6.98735 9.16868 6.61358 9.16868 5.87248C9.16868 4.80272 8.20203 4.18406 7.05494 4.18406C5.95296 4.18406 5.20542 4.68672 4.9992 5.29249C4.96053 5.40204 4.9412 5.51804 4.9412 5.63404C4.9412 5.94337 5.17964 6.1367 5.48252 6.1367C5.85629 6.1367 5.94651 5.94337 6.13984 5.72426C6.34606 5.40204 6.62317 5.21516 6.99694 5.21516C7.51249 5.21516 7.84115 5.50515 7.84115 5.93692C7.84115 6.33003 7.57049 6.54269 7.02272 6.92291C6.56517 7.23868 6.23651 7.56734 6.23651 8.14733V8.21822C6.23651 8.58555 6.45562 8.77243 6.85517 8.77243ZM6.84228 10.7573C7.26116 10.7573 7.60271 10.4544 7.60271 10.042C7.60271 9.63597 7.2676 9.33309 6.84228 9.33309C6.42339 9.33309 6.08184 9.63597 6.08184 10.042C6.08184 10.448 6.42984 10.7573 6.84228 10.7573Z"
    fill="black" fill-opacity="0.18" />
</svg>