<svg width="16" height="18" viewBox="0 0 16 18" fill="none" xmlns="http://www.w3.org/2000/svg">
  <path
    d="M10.9319 5.36877C11.3256 5.13028 11.4513 4.61785 11.2128 4.22423C10.9744 3.8306 10.4619 3.70483 10.0683 3.94331L10.9319 5.36877ZM4.79285 7.13952C4.39922 7.37801 4.27345 7.89044 4.51194 8.28407C4.75042 8.67769 5.26285 8.80346 5.65648 8.56498L4.79285 7.13952ZM5.64861 9.35085C5.25238 9.11672 4.74136 9.24812 4.50722 9.64435C4.27309 10.0406 4.40449 10.5516 4.80072 10.7857L5.64861 9.35085ZM10.3592 14.0703C10.7554 14.3045 11.2665 14.173 11.5006 13.7768C11.7347 13.3806 11.6033 12.8696 11.2071 12.6354L10.3592 14.0703ZM12.5835 6.5C14.1943 6.5 15.5002 5.19415 15.5002 3.58333H13.8335C13.8335 4.27368 13.2738 4.83333 12.5835 4.83333V6.5ZM15.5002 3.58333C15.5002 1.9725 14.1943 0.666667 12.5835 0.666667V2.33333C13.2738 2.33333 13.8335 2.89298 13.8335 3.58333H15.5002ZM12.5835 0.666667C10.9727 0.666667 9.66683 1.9725 9.66683 3.58333H11.3335C11.3335 2.89298 11.8931 2.33333 12.5835 2.33333V0.666667ZM9.66683 3.58333C9.66683 5.19415 10.9727 6.5 12.5835 6.5V4.83333C11.8931 4.83333 11.3335 4.27368 11.3335 3.58333H9.66683ZM3.41683 11.9167C5.02765 11.9167 6.3335 10.6108 6.3335 9H4.66683C4.66683 9.69035 4.10718 10.25 3.41683 10.25V11.9167ZM6.3335 9C6.3335 7.38918 5.02765 6.08333 3.41683 6.08333V7.75C4.10718 7.75 4.66683 8.30965 4.66683 9H6.3335ZM3.41683 6.08333C1.80601 6.08333 0.500163 7.38918 0.500163 9H2.16683C2.16683 8.30965 2.72648 7.75 3.41683 7.75V6.08333ZM0.500163 9C0.500163 10.6108 1.80601 11.9167 3.41683 11.9167V10.25C2.72648 10.25 2.16683 9.69035 2.16683 9H0.500163ZM10.0683 3.94331L4.79285 7.13952L5.65648 8.56498L10.9319 5.36877L10.0683 3.94331ZM4.80072 10.7857L10.3592 14.0703L11.2071 12.6354L5.64861 9.35085L4.80072 10.7857ZM12.5835 13.1667C13.2738 13.1667 13.8335 13.7263 13.8335 14.4167H15.5002C15.5002 12.8058 14.1943 11.5 12.5835 11.5V13.1667ZM13.8335 14.4167C13.8335 15.107 13.2738 15.6667 12.5835 15.6667V17.3333C14.1943 17.3333 15.5002 16.0275 15.5002 14.4167H13.8335ZM12.5835 15.6667C11.8931 15.6667 11.3335 15.107 11.3335 14.4167H9.66683C9.66683 16.0275 10.9727 17.3333 12.5835 17.3333V15.6667ZM11.3335 14.4167C11.3335 13.7263 11.8931 13.1667 12.5835 13.1667V11.5C10.9727 11.5 9.66683 12.8058 9.66683 14.4167H11.3335Z"
    fill="black" fill-opacity="0.85" />
</svg>