<svg width="20" height="20" viewBox="0 0 20 20" fill="none" xmlns="http://www.w3.org/2000/svg">
<path fill-rule="evenodd" clip-rule="evenodd" d="M8.51493 19C8.90167 18.9894 9.21198 18.6668 9.21198 18.2706V13.3349C9.21198 13.0413 9.03905 12.7764 8.77316 12.6626C8.67794 12.6218 8.53224 12.5314 8.31154 12.3288C8.27923 12.2991 8.24618 12.2668 8.21296 12.2317C8.12155 12.135 8.02893 12.017 7.94739 11.8746C7.7982 11.6141 7.68605 11.2718 7.68605 10.8286C7.68605 10.0621 8.02971 9.64897 8.30259 9.42767C8.35828 9.38241 8.41511 9.34212 8.47007 9.30721V10.5262V10.5788C8.47007 10.8564 8.62493 11.1099 8.86955 11.2328L8.92258 11.2595L9.7585 11.6794C9.95844 11.7798 10.1929 11.7798 10.3929 11.6794L11.2818 11.2328C11.5264 11.1099 11.6813 10.8564 11.6813 10.5788V9.31969C11.712 9.33974 11.7431 9.36133 11.7742 9.38454C11.7925 9.39819 11.8107 9.41239 11.8289 9.42718C11.8586 9.45129 11.8892 9.4777 11.9201 9.50661C12.172 9.74248 12.4447 10.1451 12.4447 10.8286C12.4447 11.0815 12.4043 11.3023 12.3393 11.4946C12.2442 11.7756 12.0963 11.9957 11.9446 12.1658C11.8907 12.2262 11.8364 12.2803 11.7837 12.3287C11.5963 12.5008 11.4095 12.6069 11.2794 12.6626C11.0135 12.7764 10.8406 13.0413 10.8406 13.3349V18.2706C10.8406 18.6682 11.1532 18.9915 11.5418 18.9998L15.1901 19C16.685 19 18.0154 17.7016 18.0154 16.1274V11.5457L18.0844 11.4757C18.1125 11.4471 18.1401 11.4179 18.1671 11.3883C19.3405 10.1014 19.2648 8.09137 17.9984 6.89937C17.9924 6.89379 17.9864 6.88831 17.9803 6.88294L12.3474 1.92994C11.0204 0.69002 8.97959 0.69002 7.6526 1.92994L2.01967 6.88294C2.01356 6.88831 2.00754 6.89379 2.00161 6.89937C1.97242 6.92684 1.94376 6.95487 1.91562 6.98345C0.694792 8.2238 0.694792 10.2353 1.91562 11.4757L1.9846 11.5457V16.1274C1.9846 17.7566 3.19869 18.9826 4.80666 18.9842L6.65643 19L8.51493 19ZM11.3836 3.00974C10.6031 2.2751 9.3969 2.2751 8.61635 3.00974C8.61043 3.01532 8.60441 3.0208 8.5983 3.02617L2.96669 7.97801C2.95368 7.99042 2.94087 8.00303 2.92825 8.01585C2.26834 8.6863 2.26834 9.77281 2.92825 10.4433L3.20757 10.7271C3.34224 10.8639 3.41792 11.0496 3.41792 11.2433V16.1274C3.41792 16.9429 3.98292 17.5255 4.8099 17.5255H4.81589L6.66546 17.5412H7.77867V13.7594C7.63515 13.6592 7.49359 13.5424 7.35147 13.4119C6.84263 12.9448 6.25273 12.1092 6.25273 10.8286C6.25273 9.52217 6.87625 8.71916 7.40936 8.28682C7.92932 7.86448 8.45738 7.71261 8.59482 7.68037C8.86182 7.61713 9.20525 7.65778 9.47258 7.86045C9.48011 7.86614 9.48802 7.87227 9.49624 7.87884C9.64673 7.99911 9.90339 8.26815 9.90339 8.67958V9.91574V10.1254L10.0757 10.2119L10.248 10.1254V9.44365V8.67958C10.248 8.27106 10.4966 7.99281 10.6723 7.86024C10.9281 7.66656 11.2525 7.61346 11.535 7.68043C11.5644 7.68732 11.6114 7.69958 11.6721 7.71865C11.8979 7.78951 12.3136 7.95438 12.7229 8.28693C13.2563 8.71976 13.878 9.52288 13.878 10.8286C13.878 12.1287 13.2341 12.9618 12.7436 13.412C12.5864 13.5564 12.427 13.676 12.2739 13.7737V17.5412H15.1901C15.911 17.5412 16.5821 16.8782 16.5821 16.1274V11.2433C16.5821 11.0496 16.6577 10.8639 16.7924 10.7271L17.0717 10.4433C17.0869 10.4278 17.1019 10.4121 17.1165 10.396C17.7482 9.70328 17.7102 8.62339 17.0333 7.97803L11.4017 3.02617C11.3956 3.0208 11.3896 3.01532 11.3836 3.00974Z" fill="black" fill-opacity="0.85"/>
</svg>
