<svg width="16" height="16" viewBox="0 0 16 16" fill="none" xmlns="http://www.w3.org/2000/svg">
  <path
    d="M10.6731 4.50473C10.6742 3.89863 10.5178 3.30265 10.2193 2.77518C9.92073 2.24771 9.49026 1.80685 8.97006 1.49581C8.44986 1.18477 7.85778 1.01421 7.25183 1.00085C6.64588 0.98749 6.04685 1.13179 5.51345 1.4196C4.98004 1.70741 4.53056 2.12887 4.20906 2.64267C3.88755 3.15647 3.70504 3.74498 3.67942 4.35054C3.6538 4.95609 3.78595 5.55792 4.06291 6.09704C4.33987 6.63615 4.75214 7.09407 5.25932 7.42591C3.98305 8.07737 2.9106 9.06738 2.15935 10.2876C1.40811 11.5078 1.00702 12.9111 1 14.344C1.00227 14.5173 1.0721 14.6828 1.19463 14.8054C1.31716 14.9279 1.48269 14.9977 1.65595 15C1.82922 14.9977 1.99475 14.9279 2.11728 14.8054C2.23981 14.6828 2.30964 14.5173 2.31191 14.344C2.32261 12.8104 2.87831 11.3306 3.87969 10.169C4.88107 9.00737 6.26288 8.2397 7.77818 8.00315C7.85662 7.98116 7.93062 7.94564 7.99684 7.8982C8.75855 7.71404 9.43637 7.27947 9.92165 6.66415C10.4069 6.04882 10.6716 5.28839 10.6731 4.50473V4.50473ZM7.17471 2.31822C7.60716 2.31822 8.0299 2.44646 8.38947 2.68671C8.74904 2.92697 9.02929 3.26846 9.19478 3.66799C9.36027 4.06752 9.40357 4.50716 9.31921 4.9313C9.23484 5.35544 9.02659 5.74504 8.7208 6.05083C8.41502 6.35662 8.02542 6.56486 7.60128 6.64923C7.17713 6.7336 6.7375 6.6903 6.33797 6.5248C5.93843 6.35931 5.59695 6.07906 5.35669 5.71949C5.11643 5.35992 4.9882 4.93718 4.9882 4.50473C4.9882 4.21759 5.04475 3.93327 5.15463 3.66799C5.26452 3.40271 5.42557 3.16167 5.62861 2.95863C5.83165 2.7556 6.07269 2.59454 6.33797 2.48466C6.60325 2.37478 6.88757 2.31822 7.17471 2.31822V2.31822ZM14.9412 10.9856C14.8686 10.8238 14.7373 10.6956 14.5739 10.627L9.47492 8.62412C9.35251 8.56566 9.215 8.54658 9.0813 8.56952C8.94761 8.59246 8.82431 8.65628 8.7284 8.7522C8.63248 8.84812 8.56866 8.97141 8.54572 9.10511C8.52278 9.2388 8.54185 9.37632 8.60031 9.49872L10.6206 14.5802C10.6697 14.7011 10.7529 14.8052 10.8601 14.8797C10.9672 14.9542 11.0937 14.996 11.2241 15C11.3534 15.0009 11.48 14.963 11.5875 14.8913C11.6951 14.8196 11.7787 14.7173 11.8276 14.5977L12.6497 12.656L14.5826 11.8427C14.6625 11.81 14.7352 11.762 14.7965 11.7012C14.8578 11.6404 14.9065 11.5682 14.9398 11.4885C14.9731 11.4089 14.9904 11.3235 14.9906 11.2372C14.9909 11.1509 14.9741 11.0654 14.9412 10.9856V10.9856ZM11.9063 11.554C11.7485 11.6205 11.623 11.7461 11.5565 11.9039L11.2591 12.6036L10.3845 10.3908L12.5885 11.2654L11.9063 11.554Z"
    fill="black" />
</svg>