<svg width="18" height="18" viewBox="0 0 18 18" fill="none" xmlns="http://www.w3.org/2000/svg">
  <path
    d="M16.641 7.86599C16.29 7.61399 15.831 7.55999 15.435 7.71299L15.291 7.76699V1.92499C15.3 1.15099 14.679 0.502988 13.905 0.493988H4.194H4.185C3.411 0.511988 2.79 1.15999 2.808 1.92499V7.55999L2.673 7.49699C2.259 7.33499 1.8 7.38899 1.44 7.64999C1.107 7.89299 0.908997 8.28899 0.908997 8.70299V16.084C0.908997 16.426 1.044 16.75 1.287 17.002C1.53 17.254 1.854 17.38 2.196 17.38H15.894C16.236 17.38 16.56 17.245 16.803 17.002C17.046 16.759 17.181 16.435 17.181 16.093V8.91899C17.181 8.50499 16.983 8.10899 16.641 7.86599ZM3.771 1.91599C3.771 1.67299 3.96 1.46599 4.203 1.45699H13.887C14.13 1.46599 14.328 1.66399 14.319 1.91599V8.14499L9.045 10.197L3.771 7.96499V1.91599ZM16.218 16.084C16.218 16.174 16.182 16.255 16.119 16.318C16.056 16.381 15.975 16.417 15.894 16.417H2.196C2.106 16.417 2.025 16.381 1.962 16.318C1.899 16.255 1.863 16.174 1.863 16.084V8.69399C1.863 8.58599 1.908 8.48699 1.998 8.43299C2.052 8.39699 2.115 8.36999 2.178 8.36999C2.214 8.36999 2.25 8.37899 2.286 8.38799L8.856 11.16C8.973 11.205 9.099 11.214 9.216 11.169L15.786 8.61299C15.885 8.57699 15.993 8.58599 16.074 8.64899C16.164 8.71199 16.218 8.81099 16.218 8.91899V16.084Z"
    fill="black" fill-opacity="0.85" />
  <path
    d="M2.758 1.92557V7.48148L2.69414 7.45168L2.69418 7.45159L2.69122 7.45043C2.26174 7.28237 1.78477 7.33827 1.41065 7.60951L1.41052 7.6096C1.06438 7.86219 0.858997 8.27332 0.858997 8.70299V16.084C0.858997 16.4395 0.999426 16.7758 1.251 17.0367C1.50411 17.2992 1.84143 17.43 2.196 17.43H15.894C16.2494 17.43 16.5861 17.2896 16.8384 17.0373C17.0906 16.785 17.231 16.4484 17.231 16.093V8.91899C17.231 8.48925 17.0255 8.07792 16.6701 7.8253C16.3052 7.56343 15.8286 7.50739 15.4172 7.66626C15.4171 7.66629 15.4171 7.66632 15.417 7.66635L15.341 7.69484V1.92524C15.3501 1.12434 14.7076 0.453318 13.9056 0.443991V0.443988H13.905H4.194H4.185V0.443975L4.18383 0.444002C3.38275 0.462631 2.73967 1.13289 2.758 1.92557ZM14.269 1.9142L14.269 1.9142V1.91599V8.11079L9.04579 10.143L3.821 7.93185V1.91599C3.821 1.69865 3.98976 1.51541 4.20395 1.50699H13.886C14.1025 1.51547 14.277 1.69152 14.269 1.9142ZM2.02372 8.47586L2.02375 8.47591L2.02573 8.47459C2.07539 8.44149 2.12867 8.41999 2.178 8.41999C2.20579 8.41999 2.23468 8.42672 2.27013 8.43556L8.83656 11.2061L8.83655 11.2061L8.83805 11.2067C8.96402 11.2551 9.10304 11.266 9.23395 11.2157L9.23413 11.2156L15.8031 8.65998C15.8033 8.65992 15.8034 8.65986 15.8036 8.6598C15.8895 8.62873 15.9785 8.63804 16.0433 8.68846L16.0433 8.68851L16.0453 8.68995C16.1227 8.74414 16.168 8.82823 16.168 8.91899V16.084C16.168 16.1599 16.1379 16.2284 16.0836 16.2826C16.0288 16.3375 15.9601 16.367 15.894 16.367H2.196C2.12012 16.367 2.05161 16.3369 1.99735 16.2826C1.9431 16.2284 1.913 16.1599 1.913 16.084V8.69399C1.913 8.59943 1.95201 8.51889 2.02372 8.47586Z"
    stroke="black" stroke-opacity="0.85" stroke-width="0.1" />
  <path
    d="M9.50399 8.35198L11.124 6.76798C11.16 6.74998 11.187 6.72298 11.214 6.68698C11.61 6.26398 11.763 5.67899 11.646 5.12999C11.52 4.50899 11.034 4.00499 10.413 3.85199C9.93599 3.73499 9.44999 3.84299 9.06299 4.12199C8.68499 3.84299 8.18999 3.73499 7.71299 3.85199C7.10099 4.00499 6.615 4.50899 6.489 5.12099C6.381 5.66999 6.525 6.24599 6.903 6.65999L6.91199 6.66898C6.92999 6.69598 6.94799 6.71399 6.97499 6.74099L8.61299 8.34298L8.62199 8.35198C8.74799 8.47798 8.90999 8.54099 9.07199 8.54099C9.23399 8.54099 9.38699 8.47798 9.50399 8.35198ZM7.67699 6.09298C7.65899 6.07498 7.64999 6.05699 7.63199 6.03899C7.45199 5.84999 7.389 5.58899 7.443 5.33699V5.32799C7.497 5.06699 7.70399 4.85099 7.95599 4.78799C8.23499 4.71599 8.51399 4.83299 8.67599 5.07599C8.72059 5.14246 8.78087 5.19693 8.8515 5.2346C8.92213 5.27226 9.00095 5.29197 9.08099 5.29197C9.16104 5.29197 9.23986 5.27226 9.31049 5.2346C9.38112 5.19693 9.4414 5.14246 9.48599 5.07599C9.639 4.84199 9.92699 4.72499 10.197 4.78799C10.458 4.85099 10.656 5.06699 10.719 5.33699C10.773 5.56199 10.719 5.79599 10.575 5.98499L10.548 6.01198C10.521 6.02998 10.503 6.05699 10.476 6.07499L9.07199 7.45199L7.67699 6.09298V6.09298Z"
    fill="black" fill-opacity="0.85" />
</svg>