<svg width="20" height="20" viewBox="0 0 20 20" fill="none" xmlns="http://www.w3.org/2000/svg">
<g clip-path="url(#clip0)">
<path fill-rule="evenodd" clip-rule="evenodd" d="M13 1H7C6.02034 1 5.18691 1.62611 4.87803 2.5H4C2.75736 2.5 1.75 3.50736 1.75 4.75V16C1.75 17.2426 2.75736 18.25 4 18.25H16C17.2427 18.25 18.25 17.2426 18.25 16V4.75C18.25 3.50736 17.2427 2.5 16 2.5H15.122C14.8131 1.62611 13.9797 1 13 1ZM4 4H4.75V4.75C4.75 5.16422 5.08579 5.5 5.5 5.5H14.5C14.9142 5.5 15.25 5.16422 15.25 4.75V4H16C16.4142 4 16.75 4.33579 16.75 4.75V16C16.75 16.4142 16.4142 16.75 16 16.75H4C3.58579 16.75 3.25 16.4142 3.25 16V4.75C3.25 4.33579 3.58579 4 4 4ZM13.75 4H6.25V3.25C6.25 2.83579 6.58579 2.5 7 2.5H13C13.4142 2.5 13.75 2.83579 13.75 3.25V4ZM6.97335 12.0193C6.68046 11.7264 6.68046 11.2515 6.97335 10.9586C7.26624 10.6657 7.74112 10.6657 8.03401 10.9586L9.09467 12.0193L12.2767 8.83731C12.5695 8.54442 13.0444 8.54442 13.3373 8.83731C13.6302 9.1302 13.6302 9.60508 13.3373 9.89797L9.625 13.6103C9.33211 13.9032 8.85723 13.9032 8.56434 13.6103L6.97335 12.0193Z" fill="black" fill-opacity="0.85"/>
</g>
<defs>
<clipPath id="clip0">
<rect width="20" height="20" fill="white"/>
</clipPath>
</defs>
</svg>
