<svg width="16" height="16" viewBox="0 0 16 16" fill="none" xmlns="http://www.w3.org/2000/svg">
  <path
    d="M11.7668 4.23365C10.6802 3.14699 9.14018 2.52032 7.44684 2.69365C5.00018 2.94032 2.98684 4.92699 2.71351 7.37365C2.34684 10.607 4.84684 13.3337 8.00018 13.3337C10.1268 13.3337 11.9535 12.087 12.8068 10.2937C13.0202 9.84699 12.7002 9.33365 12.2068 9.33365C11.9602 9.33365 11.7268 9.46699 11.6202 9.68699C10.8668 11.307 9.06018 12.3337 7.08684 11.8937C5.60684 11.567 4.41351 10.3603 4.10018 8.88032C3.54018 6.29365 5.50684 4.00032 8.00018 4.00032C9.10684 4.00032 10.0935 4.46032 10.8135 5.18699L9.80684 6.19365C9.38684 6.61365 9.68018 7.33365 10.2735 7.33365H12.6668C13.0335 7.33365 13.3335 7.03365 13.3335 6.66699V4.27365C13.3335 3.68032 12.6135 3.38032 12.1935 3.80032L11.7668 4.23365Z"
    fill="#5D8AA3" />
</svg>